#!OML:ASF F:\VICON\USERDATA\INSTALL\rory3\rory3.ASF
:FULLY-SPECIFIED
:DEGREES
602
root -0.975879 14.856 -38.6609 -158.02 -4.11779 -177.234
lowerback -16.8882 2.15167 2.95311
upperback -13.4041 -0.324958 0.867407
thorax -4.90436 -1.55885 -0.670542
lowerneck -7.24828 3.25194 -2.23728
upperneck 35.4127 0.311176 2.23369
head 12.9957 -1.47912 0.941236
rclavicle -9.74045e-015 -2.18663e-015
rhumerus -376.838 -57.3665 362.875
rradius 13.1599
rwrist 47.0775
rhand 5.02589 362.169
rfingers 7.12502
rthumb 30.3947 -25.3461
lclavicle -9.74045e-015 -2.18663e-015
lhumerus 47.228 -44.8692 43.8128
lradius 33.0363
lwrist -15.3715
lhand 17.5254 19.0321
lfingers 7.12502
lthumb 42.2232 43.5469
rfemur 176.475 -189.83 -152.321
rtibia 31.5593
rfoot -38.252 -32.1853
rtoes -10.9859
lfemur -72.2193 17.3401 -40.0938
ltibia 62.7986
lfoot -24.0434 26.0614
ltoes 3.70635
603
root -1.01246 14.717 -38.728 -157.561 -4.47078 -178.013
lowerback -17.3106 2.01791 2.24629
upperback -13.9481 -0.623609 0.80721
thorax -5.30708 -1.75181 -0.356188
lowerneck -5.76815 3.46746 -2.26007
upperneck 34.7636 0.661392 1.9908
head 12.3929 -1.3754 0.885472
rclavicle -5.86415e-015 -1.98785e-015
rhumerus -381.179 -65.6119 368.554
rradius 15.3412
rwrist 56.1059
rhand 5.96838 362.78
rfingers 7.12502
rthumb 31.2932 -24.5648
lclavicle -5.86415e-015 -1.98785e-015
lhumerus 49.3932 -43.8573 42.1298
lradius 32.9497
lwrist -15.7895
lhand 17.8098 19.2912
lfingers 7.12502
lthumb 42.4895 43.7151
rfemur 176.343 -189.812 -152.983
rtibia 32.1274
rfoot -39.8114 -32.623
rtoes -11.415
lfemur -72.8642 16.4886 -41.1287
ltibia 63.8808
lfoot -25.502 26.3147
ltoes 4.01356
604
root -1.07062 14.631 -38.8568 -157.205 -4.8517 -178.614
lowerback -15.717 2.02981 2.30693
upperback -15.5209 -0.996962 0.202212
thorax -7.9773 -2.19727 -0.946433
lowerneck -5.54873 3.95579 -0.384582
upperneck 35.6882 1.03198 1.17275
head 12.7725 -1.18883 0.254149
rclavicle -6.26172e-015 -2.5842e-015
rhumerus -374.771 -39.6129 361.682
rradius 14.599
rwrist 32.0337
rhand 3.5998 359.107
rfingers 7.12502
rthumb 29.0336 -28.6513
lclavicle -6.26172e-015 -2.5842e-015
lhumerus 49.9315 -43.8233 40.7452
lradius 33.1471
lwrist -16.9792
lhand 19.6036 20.3414
lfingers 7.12502
lthumb 44.1656 44.1622
rfemur 176.655 -189.093 -153.715
rtibia 32.2911
rfoot -40.9747 -32.5875
rtoes -12.4816
lfemur -73.1276 15.8965 -41.8771
ltibia 64.9318
lfoot -26.9756 26.4229
ltoes 5.08519
605
root -1.0817 14.5571 -38.9417 -156.677 -4.82659 -178.959
lowerback -14.6804 2.26738 1.71889
upperback -17.3327 -1.2455 0.00895188
thorax -10.7308 -2.57387 -0.677632
lowerneck -2.97158 4.07311 -1.92452
upperneck 35.9542 0.335045 2.80355
head 12.3271 -1.74835 1.02453
rclavicle 1.3418e-014 6.55989e-015
rhumerus -380.213 -61.3291 370.619
rradius 13.3388
rwrist 56.675
rhand 2.74138 361.872
rfingers 7.12502
rthumb 28.2134 -26.0244
lclavicle 1.3418e-014 6.55989e-015
lhumerus 49.7989 -44.5427 40.2129
lradius 33.0938
lwrist -16.2325
lhand 18.0569 20.4763
lfingers 7.12502
lthumb 42.7208 44.8202
rfemur 176.343 -190.189 -153.757
rtibia 32.7987
rfoot -41.8669 -34.0837
rtoes -13.1322
lfemur -73.9751 15.6072 -42.3404
ltibia 65.8143
lfoot -28.3216 26.2158
ltoes 8.83643
606
root -1.11378 14.47 -39.0779 -155.951 -4.9645 -179.175
lowerback -16.9724 2.41721 1.36313
upperback -15.2776 -0.377728 0.373667
thorax -7.00884 -1.77109 -0.219607
lowerneck -9.45691 2.73454 -4.85514
upperneck 36.0286 -0.00339159 3.51439
head 13.7368 -1.74001 1.89912
rclavicle 1.43125e-014 -1.19271e-015
rhumerus -386.965 -68.0874 379.767
rradius 14.5862
rwrist 59.5178
rhand 2.52212 361.444
rfingers 7.12502
rthumb 28.0038 -26.4872
lclavicle 1.43125e-014 -1.19271e-015
lhumerus 56.9582 -39.7954 37.6564
lradius 32.6814
lwrist -17.2204
lhand 18.7456 21.0705
lfingers 7.12502
lthumb 43.3648 45.1863
rfemur 176.463 -190.329 -153.941
rtibia 32.599
rfoot -42.2302 -34.9787
rtoes -13.3527
lfemur -75.0164 15.2634 -42.8392
ltibia 67.0659
lfoot -28.0242 26.9667
ltoes 6.73811
607
root -1.06447 14.4036 -39.1628 -155.593 -2.67591 -180.754
lowerback -17.4859 2.3152 -1.89275
upperback -14.9352 -0.0890169 0.248696
thorax -6.41598 -1.32386 1.47859
lowerneck -10.4936 2.57077 -5.19094
upperneck 35.5831 0.0907694 3.78191
head 13.7584 -1.59059 2.10394
rclavicle 8.24956e-015 1.15295e-014
rhumerus -379.692 -54.8755 372.659
rradius 14.3437
rwrist 45.2526
rhand 1.73973 359.542
rfingers 7.12502
rthumb 27.2557 -28.5083
lclavicle 8.24956e-015 1.15295e-014
lhumerus 59.2505 -37.1616 36.4156
lradius 32.5704
lwrist -18.4849
lhand 19.1226 21.5383
lfingers 7.12502
lthumb 43.7169 45.526
rfemur 176.33 -194.094 -155.571
rtibia 33.0231
rfoot -44.5013 -36.1304
rtoes -12.3433
lfemur -75.7178 16.3587 -45.0755
ltibia 67.8341
lfoot -29.7718 26.3172
ltoes 8.89431
608
root -1.12795 14.2921 -39.3248 -154.735 -4.02697 -179.522
lowerback -21.0416 2.04266 -0.0720342
upperback -13.6613 -0.509786 0.725306
thorax -3.11519 -1.60417 0.799894
lowerneck -11.2404 1.93396 -5.04405
upperneck 33.0656 0.253545 2.74932
head 12.8321 -1.31002 1.72547
rclavicle 5.46658e-015 1.86858e-014
rhumerus -381.796 -60.7445 375.5
rradius 14.8919
rwrist 49.1121
rhand 1.64726 360.046
rfingers 7.12502
rthumb 27.1672 -28.0187
lclavicle 5.46658e-015 1.86858e-014
lhumerus 61.6372 -33.3501 35.2048
lradius 32.3752
lwrist -19.4347
lhand 18.5554 21.6372
lfingers 7.12502
lthumb 43.187 45.8167
rfemur 176.391 -193.055 -154.122
rtibia 32.6062
rfoot -45.0066 -36.2075
rtoes -13.2833
lfemur -77.1776 15.377 -43.6631
ltibia 69.8269
lfoot -31.0436 25.9829
ltoes 8.60225
609
root -1.15653 14.2173 -39.3939 -154.678 -3.5981 -180.375
lowerback -18.2648 2.35811 -0.889752
upperback -15.851 -0.561398 0.235979
thorax -7.04451 -1.81743 0.887204
lowerneck -8.84052 2.23695 -4.74879
upperneck 33.2328 0.133856 2.75362
head 12.3947 -1.48995 1.61975
rclavicle -3.18055e-015 -1.86858e-014
rhumerus -378.576 -47.0935 372.148
rradius 15.7372
rwrist 38.3295
rhand 1.16483 358.681
rfingers 7.12502
rthumb 26.7056 -29.4548
lclavicle -3.18055e-015 -1.86858e-014
lhumerus 60.1549 -34.1357 36.5313
lradius 32.4556
lwrist -20.7781
lhand 18.2782 21.8267
lfingers 7.12502
lthumb 42.9278 46.0981
rfemur 176.753 -193.383 -155.083
rtibia 32.7053
rfoot -46.6193 -35.4132
rtoes -11.7427
lfemur -77.3462 15.0863 -44.5159
ltibia 71.0955
lfoot -32.0429 26.1932
ltoes 8.05072
610
root -1.23452 14.0776 -39.5667 -153.833 -5.61466 -178.057
lowerback -21.8977 2.47002 2.47666
upperback -14.7849 -0.872217 0.842178
thorax -3.95463 -2.17688 -0.535684
lowerneck -10.9598 2.1219 -5.04113
upperneck 32.9071 0.401632 3.14336
head 12.6923 -1.19868 1.89348
rclavicle 1.0138e-014 -1.59028e-014
rhumerus -376.142 -29.6454 368.629
rradius 15.941
rwrist 19.1847
rhand -0.69185 355.965
rfingers 7.12502
rthumb 24.9275 -32.4291
lclavicle 1.0138e-014 -1.59028e-014
lhumerus 61.534 -30.6003 37.0313
lradius 31.6979
lwrist -22.6411
lhand 17.5595 21.5375
lfingers 7.12502
lthumb 42.2552 46.0415
rfemur 176.837 -191.352 -152.562
rtibia 32.1399
rfoot -48.6984 -34.6131
rtoes -19.9039
lfemur -79.3484 13.9693 -42.0295
ltibia 73.4322
lfoot -32.8441 26.5275
ltoes 7.30677
